<svg width="42" height="42" viewBox="0 0 42 42" fill="none" xmlns="http://www.w3.org/2000/svg">
<path d="M21 0C9.408 0 0 9.408 0 21C0 32.592 9.408 42 21 42C32.592 42 42 32.592 42 21C42 9.408 32.592 0 21 0ZM21 8.4C25.053 8.4 28.35 11.697 28.35 15.75C28.35 19.803 25.053 23.1 21 23.1C16.947 23.1 13.65 19.803 13.65 15.75C13.65 11.697 16.947 8.4 21 8.4ZM21 37.8C16.737 37.8 11.697 36.078 8.106 31.752C11.7844 28.866 16.3246 27.2975 21 27.2975C25.6754 27.2975 30.2156 28.866 33.894 31.752C30.303 36.078 25.263 37.8 21 37.8Z" fill="#3DA9FC"/>
</svg>
