<svg width="45" height="45" viewBox="0 0 45 45" fill="none" xmlns="http://www.w3.org/2000/svg">
<circle cx="22.5" cy="22.5" r="22.5" fill="#D8EEFE"/>
<path d="M22 26.75C22.9946 26.75 23.9484 26.3549 24.6516 25.6516C25.3549 24.9484 25.75 23.9946 25.75 23C25.75 22.0054 25.3549 21.0516 24.6516 20.3483C23.9484 19.6451 22.9946 19.25 22 19.25C21.0054 19.25 20.0516 19.6451 19.3483 20.3483C18.6451 21.0516 18.25 22.0054 18.25 23C18.25 23.9946 18.6451 24.9484 19.3483 25.6516C20.0516 26.3549 21.0054 26.75 22 26.75Z" fill="#3DA9FC"/>
<path d="M7 15.5C7 15.0027 7.19754 14.5258 7.54917 14.1742C7.90081 13.8225 8.37772 13.625 8.875 13.625H35.125C35.6223 13.625 36.0992 13.8225 36.4508 14.1742C36.8025 14.5258 37 15.0027 37 15.5V30.5C37 30.9973 36.8025 31.4742 36.4508 31.8258C36.0992 32.1775 35.6223 32.375 35.125 32.375H8.875C8.37772 32.375 7.90081 32.1775 7.54917 31.8258C7.19754 31.4742 7 30.9973 7 30.5V15.5ZM12.625 15.5C12.625 16.4946 12.2299 17.4484 11.5267 18.1517C10.8234 18.8549 9.86956 19.25 8.875 19.25V26.75C9.86956 26.75 10.8234 27.1451 11.5267 27.8484C12.2299 28.5516 12.625 29.5054 12.625 30.5H31.375C31.375 29.5054 31.7701 28.5516 32.4734 27.8484C33.1766 27.1451 34.1304 26.75 35.125 26.75V19.25C34.1304 19.25 33.1766 18.8549 32.4734 18.1517C31.7701 17.4484 31.375 16.4946 31.375 15.5H12.625Z" fill="#3DA9FC"/>
</svg>
