<svg width="30" height="31" viewBox="0 0 30 31" fill="none" xmlns="http://www.w3.org/2000/svg">
<g clip-path="url(#clip0_247_337)">
<g clip-path="url(#clip1_247_337)">
<path d="M2.57539 13.0515H11.9087C12.3213 13.0515 12.7169 12.8876 13.0087 12.5959C13.3004 12.3042 13.4643 11.9085 13.4643 11.4959V2.16261C13.4643 1.75005 13.3004 1.35439 13.0087 1.06267C12.7169 0.770944 12.3213 0.607056 11.9087 0.607056H2.57539C2.16283 0.607056 1.76717 0.770944 1.47545 1.06267C1.18372 1.35439 1.01984 1.75005 1.01984 2.16261V11.4959C1.01984 11.9085 1.18372 12.3042 1.47545 12.5959C1.76717 12.8876 2.16283 13.0515 2.57539 13.0515ZM18.1309 13.0515H27.4643C27.8768 13.0515 28.2725 12.8876 28.5642 12.5959C28.8559 12.3042 29.0198 11.9085 29.0198 11.4959V2.16261C29.0198 1.75005 28.8559 1.35439 28.5642 1.06267C28.2725 0.770944 27.8768 0.607056 27.4643 0.607056H18.1309C17.7184 0.607056 17.3227 0.770944 17.031 1.06267C16.7393 1.35439 16.5754 1.75005 16.5754 2.16261V11.4959C16.5754 11.9085 16.7393 12.3042 17.031 12.5959C17.3227 12.8876 17.7184 13.0515 18.1309 13.0515ZM2.57539 28.6071H11.9087C12.3213 28.6071 12.7169 28.4432 13.0087 28.1514C13.3004 27.8597 13.4643 27.4641 13.4643 27.0515V17.7182C13.4643 17.3056 13.3004 16.9099 13.0087 16.6182C12.7169 16.3265 12.3213 16.1626 11.9087 16.1626H2.57539C2.16283 16.1626 1.76717 16.3265 1.47545 16.6182C1.18372 16.9099 1.01984 17.3056 1.01984 17.7182V27.0515C1.01984 27.4641 1.18372 27.8597 1.47545 28.1514C1.76717 28.4432 2.16283 28.6071 2.57539 28.6071ZM22.7976 28.6071C26.2292 28.6071 29.0198 25.8164 29.0198 22.3848C29.0198 18.9533 26.2292 16.1626 22.7976 16.1626C19.3661 16.1626 16.5754 18.9533 16.5754 22.3848C16.5754 25.8164 19.3661 28.6071 22.7976 28.6071Z" fill="#90B4CE"/>
</g>
</g>
<defs>
<clipPath id="clip0_247_337">
<rect width="29.2734" height="29.2734" fill="white" transform="translate(0.656555 0.925415)"/>
</clipPath>
<clipPath id="clip1_247_337">
<rect width="28" height="28" fill="white" transform="translate(1.01984 0.607056)"/>
</clipPath>
</defs>
</svg>
