<svg width="16" height="17" viewBox="0 0 16 17" fill="none" xmlns="http://www.w3.org/2000/svg">
<mask id="mask0_82_10837" style="mask-type:alpha" maskUnits="userSpaceOnUse" x="0" y="0" width="16" height="17">
<rect y="0.5" width="16" height="16" fill="#FF0000"/>
</mask>
<g mask="url(#mask0_82_10837)">
<path d="M5.20512 14.4229C4.87265 14.4229 4.58867 14.3051 4.35321 14.0697C4.11773 13.8342 3.99999 13.5502 3.99999 13.2177V4.75622H3.33332V3.75624H6.33331V3.1665H10.3333V3.75624H13.3333V4.75622H12.6666V13.2177C12.6666 13.5545 12.55 13.8395 12.3166 14.0729C12.0833 14.3062 11.7982 14.4229 11.4615 14.4229H5.20512ZM11.6666 4.75622H4.99997V13.2177C4.99997 13.2776 5.01921 13.3267 5.05767 13.3652C5.09614 13.4037 5.14529 13.4229 5.20512 13.4229H11.4615C11.5128 13.4229 11.5598 13.4015 11.6025 13.3588C11.6453 13.316 11.6666 13.269 11.6666 13.2177V4.75622ZM6.60256 12.0896H7.60254V6.08955H6.60256V12.0896ZM9.06407 12.0896H10.0641V6.08955H9.06407V12.0896Z" fill="#FF0000"/>
</g>
</svg>
