<svg width="16" height="17" viewBox="0 0 16 17" fill="none" xmlns="http://www.w3.org/2000/svg">
<mask id="mask0_82_10840" style="mask-type:alpha" maskUnits="userSpaceOnUse" x="0" y="0" width="16" height="17">
<rect y="0.5" width="16" height="16" fill="#094067"/>
</mask>
<g mask="url(#mask0_82_10840)">
<path d="M1.33334 16.5001V14.5002H14.6667V16.5001H1.33334ZM3.00002 12.8335V10.795L8.95644 4.85146L10.982 6.87706L5.03845 12.8335H3.00002ZM4 11.8335H4.6L9.57694 6.87706L8.95644 6.25654L4 11.2335V11.8335ZM11.6551 6.18219L9.6295 4.16941L10.6115 3.18738C10.7338 3.05831 10.8872 2.99549 11.0718 2.99891C11.2564 3.00233 11.4098 3.06516 11.5321 3.18738L12.6243 4.27965C12.7465 4.40187 12.8098 4.55358 12.8141 4.73478C12.8183 4.91598 12.7594 5.07111 12.6372 5.20016L11.6551 6.18219Z" fill="#094067"/>
</g>
</svg>
