<svg width="40" height="40" viewBox="0 0 40 40" fill="none" xmlns="http://www.w3.org/2000/svg">
<circle cx="20" cy="20" r="20" fill="#D8EEFE"/>
<mask id="mask0_432_2326" style="mask-type:luminance" maskUnits="userSpaceOnUse" x="9" y="9" width="22" height="22">
<path d="M10 24.5C10 24.2348 10.1054 23.9804 10.2929 23.7929C10.4804 23.6054 10.7348 23.5 11 23.5H14V20L20 16L26 20V23.5H29C29.2652 23.5 29.5196 23.6054 29.7071 23.7929C29.8946 23.9804 30 24.2348 30 24.5V29C30 29.2652 29.8946 29.5196 29.7071 29.7071C29.5196 29.8946 29.2652 30 29 30H10V24.5Z" fill="white" stroke="white" stroke-width="2" stroke-linejoin="round"/>
<path d="M20 11V16" stroke="white" stroke-width="2" stroke-linecap="round"/>
<path d="M26 13.9999V10.9999C26 10.9999 25.25 12.4999 23 10.9999C20.75 9.49992 20 10.9999 20 10.9999V13.9999C20 13.9999 20.75 12.4999 23 13.9999C25.25 15.4999 26 13.9999 26 13.9999Z" stroke="white" stroke-width="2" stroke-linecap="round" stroke-linejoin="round"/>
<path d="M22 30V23.5H18V30" stroke="black" stroke-width="2" stroke-linecap="round" stroke-linejoin="round"/>
<path d="M17 30H23" stroke="white" stroke-width="2" stroke-linecap="round" stroke-linejoin="round"/>
</mask>
<g mask="url(#mask0_432_2326)">
<path d="M8 8H32V32H8V8Z" fill="#3DA9FC"/>
</g>
</svg>
