<svg width="40" height="40" viewBox="0 0 40 40" fill="none" xmlns="http://www.w3.org/2000/svg">
<circle cx="20" cy="20" r="20" fill="#D8EEFE"/>
<path d="M17.0792 15.1644C17.1464 15.0299 17.2524 14.9187 17.3836 14.8453C17.5147 14.7718 17.6649 14.7394 17.8147 14.7524C17.9644 14.7653 18.1068 14.8229 18.2234 14.9178C18.34 15.0127 18.4254 15.1404 18.4686 15.2844L20.1748 20.9731L21.5811 18.1644C21.6434 18.0398 21.7391 17.9351 21.8576 17.8619C21.9761 17.7886 22.1126 17.7499 22.2519 17.7499C22.3911 17.7499 22.5276 17.7886 22.6461 17.8619C22.7646 17.9351 22.8603 18.0398 22.9226 18.1644L24.2136 20.75H28.7492C29.4245 19.3578 29.7671 17.8277 29.75 16.2805C29.7205 13.3691 27.3847 11 24.5431 11C22.2889 11 20.7931 12.3847 20 13.3906C19.2087 12.3833 17.7111 11 15.4569 11C12.6153 11 10.2795 13.3691 10.25 16.2805C10.2379 17.2858 10.379 18.2872 10.6686 19.25H15.0364L17.0792 15.1644Z" fill="#3DA9FC"/>
<path d="M23.0792 21.8356L22.25 20.1772L20.6708 23.3356C20.6085 23.4601 20.5127 23.5649 20.3942 23.6381C20.2758 23.7112 20.1393 23.75 20 23.75C19.9791 23.75 19.9575 23.749 19.9353 23.7472C19.7852 23.7347 19.6423 23.6773 19.5253 23.5825C19.4082 23.4877 19.3224 23.3599 19.2791 23.2156L17.5728 17.5269L16.1666 20.3356C16.1046 20.4595 16.0095 20.5638 15.8918 20.6369C15.7742 20.7101 15.6385 20.7492 15.5 20.75H11.2508C11.6883 21.6653 12.2706 22.5662 12.9978 23.4528C13.8777 24.5253 15.4728 26.24 19.1567 28.7408C19.4052 28.911 19.6993 29.0021 20.0005 29.0021C20.3017 29.0021 20.5958 28.911 20.8442 28.7408C24.5281 26.24 26.1233 24.5253 27.0031 23.4528C27.32 23.0671 27.6173 22.6656 27.8937 22.25H23.75C23.6107 22.25 23.4742 22.2112 23.3558 22.1381C23.2373 22.0649 23.1415 21.9601 23.0792 21.8356ZM29.75 20.75H28.7492C28.4999 21.2696 28.214 21.7708 27.8937 22.25H29.75C29.9489 22.25 30.1397 22.171 30.2803 22.0303C30.421 21.8897 30.5 21.6989 30.5 21.5C30.5 21.3011 30.421 21.1103 30.2803 20.9696C30.1397 20.829 29.9489 20.75 29.75 20.75ZM10.25 19.25C10.0511 19.25 9.86032 19.329 9.71967 19.4697C9.57902 19.6103 9.5 19.8011 9.5 20C9.5 20.1989 9.57902 20.3897 9.71967 20.5303C9.86032 20.671 10.0511 20.75 10.25 20.75H11.2508C11.0188 20.2655 10.8242 19.7641 10.6686 19.25H10.25Z" fill="#3DA9FC"/>
</svg>
