<svg width="40" height="40" viewBox="0 0 40 40" fill="none" xmlns="http://www.w3.org/2000/svg">
<circle cx="20" cy="20" r="20" fill="#D8EEFE"/>
<g clip-path="url(#clip0_432_2312)">
<path d="M25.25 14H25.2542ZM30.4789 12.5H26.2105L26.6286 10.8284L28.4248 10.2167C28.8069 10.0869 29.0342 9.68094 28.9241 9.29282C28.896 9.19518 28.8485 9.10426 28.7842 9.02556C28.72 8.94686 28.6405 8.88203 28.5504 8.835C28.4604 8.78796 28.3618 8.75971 28.2605 8.75195C28.1592 8.74419 28.0574 8.75708 27.9612 8.78985L25.7581 9.53985C25.6395 9.5803 25.5329 9.64985 25.448 9.74214C25.3632 9.83443 25.3028 9.9465 25.2725 10.0681L24.6645 12.5H18.5211C18.1175 12.5 17.7711 12.8103 17.7509 13.2139C17.746 13.3153 17.7618 13.4167 17.7972 13.5118C17.8327 13.6069 17.8871 13.6939 17.9571 13.7674C18.0271 13.8409 18.1114 13.8994 18.2047 13.9394C18.298 13.9794 18.3985 14 18.5 14H18.6289L18.6758 14.4059C18.6868 14.5007 18.7323 14.5882 18.8036 14.6516C18.8749 14.7151 18.9671 14.7501 19.0625 14.75C20.8906 14.75 22.5153 15.2609 23.7556 16.2275C24.4455 16.7591 25.0047 17.4413 25.3906 18.222C25.6066 18.6612 25.766 19.126 25.865 19.6053C25.8847 19.6987 25.94 19.7808 26.0192 19.8341C26.6569 20.2667 27.1273 20.9046 27.3522 21.6416C27.5772 22.3786 27.5431 23.1705 27.2558 23.8855C27.2223 23.9682 27.2199 24.0602 27.2487 24.1447C27.4148 24.6206 27.4997 25.121 27.5 25.625C27.5 26.6722 27.1437 27.6702 26.4969 28.4352C26.1301 28.8718 25.6688 29.2191 25.1478 29.4509C25.0577 29.4907 24.9868 29.5642 24.9505 29.6558C24.7558 30.1629 24.4809 30.6355 24.1362 31.0555C24.1219 31.0725 24.1127 31.0933 24.1097 31.1154C24.1068 31.1374 24.1102 31.1599 24.1195 31.1801C24.1289 31.2003 24.1438 31.2175 24.1625 31.2295C24.1813 31.2416 24.203 31.248 24.2253 31.2481H26.532C27.0968 31.2458 27.6402 31.0322 28.0554 30.6492C28.4705 30.2663 28.7272 29.7418 28.775 29.1791L30.3781 14H30.5C30.6016 14.0001 30.7022 13.9796 30.7956 13.9397C30.889 13.8997 30.9734 13.8412 31.0435 13.7677C31.1136 13.6942 31.1681 13.6072 31.2036 13.512C31.2391 13.4168 31.2549 13.3154 31.25 13.2139C31.2303 12.8103 30.8825 12.5 30.4789 12.5Z" fill="#3DA9FC"/>
<path d="M13.0948 23C13.2428 22.9993 13.3894 23.0279 13.5261 23.0843C13.6629 23.1406 13.7872 23.2235 13.8917 23.3281L14.6188 24.0552C14.6362 24.0726 14.6568 24.0864 14.6796 24.0959C14.7024 24.1053 14.7268 24.1101 14.7514 24.1101C14.776 24.1101 14.8004 24.1053 14.8232 24.0959C14.846 24.0864 14.8666 24.0726 14.8841 24.0552L15.6097 23.3281C15.7142 23.2235 15.8385 23.1406 15.9753 23.0843C16.112 23.0279 16.2586 22.9993 16.4066 23H25.6213C25.6705 23.0005 25.7194 22.9913 25.765 22.9729C25.8107 22.9545 25.8523 22.9273 25.8875 22.8928C25.9227 22.8583 25.9507 22.8173 25.97 22.772C25.9893 22.7267 25.9995 22.678 26 22.6287V22.625C25.9995 22.1929 25.85 21.7742 25.5768 21.4395C25.3035 21.1048 24.9232 20.8745 24.5 20.7875C24.4616 19.3958 23.8906 18.2309 22.8355 17.4125C21.8595 16.6513 20.5555 16.25 19.0625 16.25H15.6875C12.4897 16.25 10.3236 18.0673 10.25 20.7875C9.82677 20.8745 9.44649 21.1048 9.17325 21.4395C8.90001 21.7742 8.75053 22.1929 8.75 22.625C8.75 22.7245 8.78951 22.8198 8.85984 22.8902C8.93016 22.9605 9.02554 23 9.125 23H13.0948ZM16.7159 24.5C16.6667 24.5 16.6179 24.5096 16.5724 24.5284C16.5268 24.5473 16.4855 24.5749 16.4506 24.6097L15.4128 25.648C15.237 25.8237 14.9986 25.9225 14.75 25.9225C14.5014 25.9225 14.263 25.8237 14.0872 25.648L13.0494 24.6097C13.0145 24.5749 12.9732 24.5473 12.9276 24.5284C12.8821 24.5096 12.8333 24.5 12.7841 24.5H9.53094C9.35476 24.4992 9.18398 24.5608 9.04879 24.6737C8.9136 24.7867 8.82271 24.9438 8.79219 25.1173C8.76403 25.2851 8.74992 25.4549 8.75 25.625C8.75 27.0589 9.74047 28.227 10.9653 28.25C11.0792 28.9587 11.3548 29.5991 11.7697 30.1002C12.3833 30.8413 13.2753 31.25 14.2813 31.25H20.4688C21.4747 31.25 22.3667 30.8413 22.9803 30.0992C23.3952 29.5981 23.6708 28.9578 23.7847 28.2491C25.0095 28.227 26 27.0589 26 25.6241C26.0001 25.454 25.986 25.2842 25.9578 25.1164C25.9271 24.9431 25.8361 24.7861 25.7009 24.6734C25.5658 24.5606 25.3951 24.4992 25.2191 24.5H16.7159Z" fill="#3DA9FC"/>
</g>
<defs>
<clipPath id="clip0_432_2312">
<rect width="24" height="24" fill="white" transform="translate(8 8)"/>
</clipPath>
</defs>
</svg>
