<svg width="40" height="40" viewBox="0 0 40 40" fill="none" xmlns="http://www.w3.org/2000/svg">
<circle cx="20" cy="20" r="20" fill="#D8EEFE"/>
<g clip-path="url(#clip0_432_2332)">
<path d="M25 12C26.106 12 26.955 12.843 27.584 13.75L27.797 14.071L27.992 14.391C28.054 14.495 28.113 14.599 28.17 14.699C28.957 16.106 29.642 17.943 30.095 19.758C30.545 21.559 30.794 23.44 30.635 24.919C30.475 26.404 29.71 28 28 28C26.466 28 25.257 27.18 24.275 26.379L23.165 25.448C22.242 24.692 21.232 24 20 24C18.768 24 17.757 24.692 16.836 25.448L15.726 26.378C14.742 27.18 13.533 28 12 28C10.289 28 9.524 26.404 9.365 24.919C9.207 23.439 9.455 21.559 9.905 19.757C10.358 17.943 11.043 16.107 11.83 14.699L12.008 14.39L12.203 14.071L12.416 13.75C13.045 12.843 13.894 12 15 12C15.51 12 16.017 12.124 16.515 12.27L17.108 12.452C17.206 12.482 17.303 12.511 17.4 12.538C18.265 12.786 19.15 13 20 13C20.85 13 21.735 12.786 22.6 12.538L23.485 12.271C23.983 12.124 24.49 12 25 12ZM16.5 16C15.837 16 15.2011 16.2634 14.7322 16.7322C14.2634 17.2011 14 17.837 14 18.5C14 19.163 14.2634 19.7989 14.7322 20.2678C15.2011 20.7366 15.837 21 16.5 21C17.163 21 17.7989 20.7366 18.2678 20.2678C18.7366 19.7989 19 19.163 19 18.5C19 17.837 18.7366 17.2011 18.2678 16.7322C17.7989 16.2634 17.163 16 16.5 16ZM23.5 16C23.2348 16 22.9804 16.1054 22.7929 16.2929C22.6054 16.4804 22.5 16.7348 22.5 17V17.5H22C21.7348 17.5 21.4804 17.6054 21.2929 17.7929C21.1054 17.9804 21 18.2348 21 18.5C21 18.7652 21.1054 19.0196 21.2929 19.2071C21.4804 19.3946 21.7348 19.5 22 19.5H22.5V20C22.5 20.2652 22.6054 20.5196 22.7929 20.7071C22.9804 20.8946 23.2348 21 23.5 21C23.7652 21 24.0196 20.8946 24.2071 20.7071C24.3946 20.5196 24.5 20.2652 24.5 20V19.5H25C25.2652 19.5 25.5196 19.3946 25.7071 19.2071C25.8946 19.0196 26 18.7652 26 18.5C26 18.2348 25.8946 17.9804 25.7071 17.7929C25.5196 17.6054 25.2652 17.5 25 17.5H24.5V17C24.5 16.7348 24.3946 16.4804 24.2071 16.2929C24.0196 16.1054 23.7652 16 23.5 16ZM16.5 18C16.6326 18 16.7598 18.0527 16.8536 18.1464C16.9473 18.2402 17 18.3674 17 18.5C17 18.6326 16.9473 18.7598 16.8536 18.8536C16.7598 18.9473 16.6326 19 16.5 19C16.3674 19 16.2402 18.9473 16.1464 18.8536C16.0527 18.7598 16 18.6326 16 18.5C16 18.3674 16.0527 18.2402 16.1464 18.1464C16.2402 18.0527 16.3674 18 16.5 18Z" fill="#3DA9FC"/>
</g>
<defs>
<clipPath id="clip0_432_2332">
<rect width="24" height="24" fill="white" transform="translate(8 8)"/>
</clipPath>
</defs>
</svg>
