<svg width="34" height="32" viewBox="0 0 34 32" fill="none" xmlns="http://www.w3.org/2000/svg">
<mask id="path-1-outside-1_180_2260" maskUnits="userSpaceOnUse" x="0" y="-0.378113" width="34" height="33" fill="black">
<rect fill="white" y="-0.378113" width="34" height="33"/>
<path d="M3 29.1358H30.5625ZM3 15.8788H30.5625ZM3 2.62189H30.5625Z"/>
</mask>
<path d="M3 26.6358C1.61929 26.6358 0.5 27.7551 0.5 29.1358C0.5 30.5165 1.61929 31.6358 3 31.6358V26.6358ZM30.5625 31.6358C31.9432 31.6358 33.0625 30.5165 33.0625 29.1358C33.0625 27.7551 31.9432 26.6358 30.5625 26.6358V31.6358ZM3 13.3788C1.61929 13.3788 0.5 14.4981 0.5 15.8788C0.5 17.2595 1.61929 18.3788 3 18.3788V13.3788ZM30.5625 18.3788C31.9432 18.3788 33.0625 17.2595 33.0625 15.8788C33.0625 14.4981 31.9432 13.3788 30.5625 13.3788V18.3788ZM3 0.121887C1.61929 0.121887 0.5 1.24118 0.5 2.62189C0.5 4.0026 1.61929 5.12189 3 5.12189V0.121887ZM30.5625 5.12189C31.9432 5.12189 33.0625 4.0026 33.0625 2.62189C33.0625 1.24118 31.9432 0.121887 30.5625 0.121887V5.12189ZM3 31.6358H30.5625V26.6358H3V31.6358ZM3 18.3788H30.5625V13.3788H3V18.3788ZM3 5.12189H30.5625V0.121887H3V5.12189Z" fill="#3DA9FC" mask="url(#path-1-outside-1_180_2260)"/>
</svg>
