<svg width="172" height="172" viewBox="0 0 172 172" fill="none" xmlns="http://www.w3.org/2000/svg">
<circle cx="86" cy="86" r="86" fill="white"/>
<path d="M128.677 92.1031L128.994 91.8521L129.321 91.6142L135.996 86.7562V79.4182H86.9544H37.292V99.0099H119.952L128.677 92.1031Z" stroke="#3DA9FC" stroke-width="40"/>
<path d="M60.7061 82.5968L47.4611 82.5968L34.2162 82.5968" stroke="white" stroke-width="5" stroke-linecap="round"/>
<path d="M60.7061 94.0022L47.4611 94.0022L34.2162 94.0022" stroke="white" stroke-width="5" stroke-linecap="round"/>
<path d="M137.6 82.5968L124.355 82.5968L111.11 82.5968" stroke="white" stroke-width="5" stroke-linecap="round"/>
<path d="M119.572 94.0022L115.341 94.0022L111.11 94.0022" stroke="white" stroke-width="5" stroke-linecap="round"/>
<path d="M93.852 79.6708C89.4216 78.2201 79.6994 76.8566 79.0013 82.5787C77.7031 93.2185 97.2267 86.3929 94.773 96.149C93.3915 101.642 81.8793 100.242 78.3105 98.4108" stroke="white" stroke-width="5" stroke-linecap="round" stroke-linejoin="round"/>
<path d="M86.6445 72.9942V78.4025M86.6445 100.036V105.444" stroke="white" stroke-width="5" stroke-linecap="round" stroke-linejoin="round"/>
<path d="M156.246 107.285L137.387 122.191C133.453 125.3 127.666 122.498 127.666 117.484V102.578C127.666 99.2639 130.353 96.5776 133.666 96.5776H152.525C158.215 96.5776 160.709 103.757 156.246 107.285Z" stroke="white" stroke-width="5"/>
</svg>
