<svg width="48" height="23" viewBox="0 0 48 23" fill="none" xmlns="http://www.w3.org/2000/svg">
<path fill-rule="evenodd" clip-rule="evenodd" d="M0.413574 20C0.413574 21.6569 1.75672 23 3.41357 23H36.463C36.6003 23 36.7366 22.9906 36.8712 22.9721V15.3419C36.8712 14.2374 37.7667 13.3419 38.8712 13.3419H47.4731C47.4813 13.2517 47.4855 13.1607 47.4855 13.0692V3C47.4855 1.34315 46.1424 0 44.4855 0H24.0549H3.41357C1.75672 0 0.413574 1.34315 0.413574 3V20ZM46.4438 15.3419H38.8712V21.8686L42.427 18.6675L46.3984 15.3802C46.4137 15.3676 46.4288 15.3548 46.4438 15.3419ZM15.1468 9.94597C15.6991 9.94597 16.1468 9.49825 16.1468 8.94597C16.1468 8.39368 15.6991 7.94597 15.1468 7.94597L10.6519 7.94597L6.15696 7.94597C5.60467 7.94597 5.15696 8.39368 5.15696 8.94597C5.15696 9.49825 5.60467 9.94597 6.15696 9.94597L10.6519 9.94597H15.1468ZM16.1468 13.3479C16.1468 13.9002 15.6991 14.3479 15.1468 14.3479H10.6519L6.15696 14.3479C5.60467 14.3479 5.15696 13.9002 5.15696 13.3479C5.15696 12.7956 5.60467 12.3479 6.15696 12.3479L10.6519 12.3479H15.1468C15.6991 12.3479 16.1468 12.7956 16.1468 13.3479ZM41.2422 9.94597C41.7944 9.94597 42.2422 9.49825 42.2422 8.94597C42.2422 8.39368 41.7944 7.94597 41.2422 7.94597L36.7472 7.94597L32.2523 7.94597C31.7 7.94597 31.2523 8.39368 31.2523 8.94597C31.2523 9.49825 31.7 9.94597 32.2523 9.94597L36.7472 9.94597H41.2422ZM36.1243 13.3479C36.1243 13.9002 35.6765 14.3479 35.1243 14.3479H33.6884L32.2525 14.3479C31.7002 14.3479 31.2525 13.9002 31.2525 13.3479C31.2525 12.7956 31.7002 12.3479 32.2525 12.3479L33.6884 12.3479H35.1243C35.6765 12.3479 36.1243 12.7956 36.1243 13.3479ZM26.7446 6.8794C26.2708 6.70294 25.6345 6.52644 24.9493 6.42203V5.23962C24.9493 4.68734 24.5016 4.23962 23.9493 4.23962C23.397 4.23962 22.9493 4.68734 22.9493 5.23962V6.38308C22.4429 6.45714 21.9182 6.61666 21.4641 6.92984C20.8546 7.35011 20.4513 7.99482 20.3615 8.83221C20.2929 9.47155 20.354 10.0561 20.5709 10.5745C20.7907 11.0997 21.1418 11.4886 21.5429 11.7745C22.2732 12.2951 23.229 12.5026 23.9263 12.654L23.9667 12.6628L24.0242 12.6753L24.0243 12.6753L24.0244 12.6753C24.3873 12.7541 24.6977 12.8215 24.9778 12.9053C25.273 12.9937 25.4661 13.0814 25.5893 13.1673C25.6957 13.2415 25.7321 13.3007 25.7523 13.3603C25.7774 13.4342 25.8095 13.6094 25.7318 13.9606C25.6895 14.1517 25.5837 14.2951 25.3436 14.4209C25.0739 14.5622 24.6686 14.6557 24.1582 14.6736C24.093 14.6758 24.0277 14.6769 23.9625 14.6767L23.9493 14.6766L23.944 14.6766C22.9653 14.6712 22.001 14.4049 21.6253 14.1857C21.1483 13.9074 20.536 14.0684 20.2576 14.5455C19.9793 15.0225 20.1404 15.6348 20.6174 15.9131C21.1695 16.2353 22.0344 16.4932 22.9493 16.6096V17.764C22.9493 18.3163 23.397 18.764 23.9493 18.764C24.5016 18.764 24.9493 18.3163 24.9493 17.764V16.6063C25.4039 16.5367 25.8597 16.4084 26.272 16.1924C26.9342 15.8453 27.4925 15.2612 27.6846 14.3924C27.8152 13.8022 27.8223 13.2361 27.6462 12.7173C27.4651 12.1841 27.124 11.7993 26.7333 11.5268C26.3592 11.2659 25.9355 11.1043 25.5511 10.9893C25.1939 10.8824 24.8115 10.7995 24.47 10.7254L24.3914 10.7084C23.5947 10.5352 23.0517 10.3939 22.7038 10.1459C22.5587 10.0424 22.4709 9.93398 22.4159 9.80251C22.3581 9.66425 22.3085 9.43284 22.3501 9.04555C22.3787 8.77869 22.4767 8.661 22.5995 8.5763C22.7624 8.46392 23.0455 8.36751 23.472 8.33702C24.329 8.27576 25.3822 8.50623 26.0467 8.75367C26.5643 8.9464 27.1401 8.68307 27.3328 8.1655C27.5255 7.64794 27.2622 7.07213 26.7446 6.8794Z" fill="#3DA9FC"/>
</svg>
