<svg width="173" height="228" viewBox="0 0 173 228" fill="none" xmlns="http://www.w3.org/2000/svg">
<circle cx="86" cy="86" r="86" fill="white"/>
<path d="M128.677 92.1031L128.994 91.8521L129.321 91.6142L135.996 86.7562V79.4182H86.9544H37.292V99.0099H119.952L128.677 92.1031Z" stroke="#3DA9FC" stroke-width="40"/>
<path d="M60.7061 82.5968L47.4611 82.5968L34.2162 82.5968" stroke="white" stroke-width="5" stroke-linecap="round"/>
<path d="M60.7061 94.0022L47.4611 94.0022L34.2162 94.0022" stroke="white" stroke-width="5" stroke-linecap="round"/>
<path d="M137.6 82.5968L124.355 82.5968L111.11 82.5968" stroke="white" stroke-width="5" stroke-linecap="round"/>
<path d="M119.572 94.0022L115.341 94.0022L111.11 94.0022" stroke="white" stroke-width="5" stroke-linecap="round"/>
<path d="M93.852 79.6708C89.4216 78.2201 79.6994 76.8566 79.0013 82.5787C77.7031 93.2185 97.2267 86.3929 94.773 96.149C93.3915 101.642 81.8793 100.242 78.3105 98.4108" stroke="white" stroke-width="5" stroke-linecap="round" stroke-linejoin="round"/>
<path d="M86.6445 72.9942V78.4025M86.6445 100.036V105.444" stroke="white" stroke-width="5" stroke-linecap="round" stroke-linejoin="round"/>
<path d="M156.246 107.285L137.387 122.191C133.453 125.3 127.666 122.498 127.666 117.484V102.578C127.666 99.2639 130.353 96.5776 133.666 96.5776H152.525C158.215 96.5776 160.709 103.757 156.246 107.285Z" stroke="white" stroke-width="5"/>
<path d="M26.3281 198.75V220H20.4844V209.688L16.2031 214.531H14.4531L10.1719 209.688V220H4.32812V198.75H6.39062L15.3281 207.812L24.2656 198.75H26.3281ZM47.6656 198.594C49.0823 198.594 50.4365 198.844 51.7281 199.344C53.0406 199.823 54.2073 200.531 55.2281 201.469C56.249 202.406 57.051 203.552 57.6344 204.906C58.2385 206.26 58.5406 207.802 58.5406 209.531C58.5406 211.26 58.2385 212.802 57.6344 214.156C57.051 215.51 56.249 216.656 55.2281 217.594C54.2073 218.531 53.0406 219.25 51.7281 219.75C50.4365 220.229 49.0823 220.469 47.6656 220.469C46.249 220.469 44.8844 220.229 43.5719 219.75C42.2802 219.25 41.124 218.531 40.1031 217.594C39.0823 216.656 38.2698 215.51 37.6656 214.156C37.0823 212.802 36.7906 211.26 36.7906 209.531C36.7906 207.802 37.0823 206.26 37.6656 204.906C38.2698 203.552 39.0823 202.406 40.1031 201.469C41.124 200.531 42.2802 199.823 43.5719 199.344C44.8844 198.844 46.249 198.594 47.6656 198.594ZM47.6656 204.062C46.7281 204.062 45.8948 204.302 45.1656 204.781C44.4365 205.26 43.8531 205.917 43.4156 206.75C42.999 207.562 42.7906 208.49 42.7906 209.531C42.7906 210.573 42.999 211.51 43.4156 212.344C43.8531 213.156 44.4365 213.802 45.1656 214.281C45.8948 214.76 46.7281 215 47.6656 215C48.6031 215 49.4365 214.76 50.1656 214.281C50.9156 213.802 51.499 213.156 51.9156 212.344C52.3323 211.51 52.5406 210.573 52.5406 209.531C52.5406 208.49 52.3323 207.562 51.9156 206.75C51.499 205.917 50.9156 205.26 50.1656 204.781C49.4365 204.302 48.6031 204.062 47.6656 204.062ZM88.1281 199.062V220.312H86.0656L74.8469 209.719V220H69.0031V198.75H71.0656L82.2844 209.531V199.062H88.1281ZM114.309 207.219V211.594H105.997V215H115.403V220H100.153V199.062H115.403V203.906H105.997V207.219H114.309ZM143.241 199.062V204.219H137.084V219.906H131.241V204.219H125.084V199.062H143.241ZM161.484 198.75L171.172 220H164.359L163.328 217.188H156.703L155.672 220H148.859L158.547 198.75H161.484ZM160.016 208.188L158.422 212.5H161.609L160.016 208.188Z" fill="#3DA9FC"/>
</svg>
