<svg width="40" height="40" viewBox="0 0 40 40" fill="none" xmlns="http://www.w3.org/2000/svg">
<circle cx="20" cy="20" r="20" fill="#D8EEFE"/>
<path d="M12 11.625C12 10.176 13.176 9 14.625 9H21.375C22.824 9 24 10.176 24 11.625V16.533C22.5622 16.4013 21.115 16.6493 19.8031 17.2521C18.4911 17.8549 17.3603 18.7915 16.5237 19.9682C15.6871 21.1449 15.174 22.5206 15.0356 23.9578C14.8971 25.3949 15.1383 26.8432 15.735 28.158L15.1755 30H14.625C13.9288 30 13.2611 29.7234 12.7688 29.2312C12.2766 28.7389 12 28.0712 12 27.375V11.625ZM23.25 31.5C24.7309 31.4999 26.1706 31.0127 27.3473 30.1137C28.5241 29.2147 29.3725 27.9536 29.7619 26.5249C30.1512 25.0961 30.06 23.579 29.5021 22.2072C28.9443 20.8354 27.9508 19.6852 26.6747 18.9337C25.3987 18.1822 23.911 17.8712 22.4408 18.0486C20.9706 18.226 19.5995 18.882 18.5389 19.9154C17.4782 20.9488 16.7868 22.3024 16.5713 23.7675C16.3557 25.2325 16.6279 26.7279 17.346 28.023L16.5285 30.7065C16.4968 30.8127 16.4945 30.9256 16.5217 31.033C16.5489 31.1405 16.6046 31.2386 16.683 31.317C16.7614 31.3954 16.8595 31.4511 16.967 31.4783C17.0744 31.5055 17.1873 31.5032 17.2935 31.4715L19.9785 30.6555C20.9793 31.211 22.1054 31.5017 23.25 31.5ZM19.5 23.25C19.5 23.0511 19.579 22.8603 19.7197 22.7197C19.8603 22.579 20.0511 22.5 20.25 22.5H26.25C26.4489 22.5 26.6397 22.579 26.7803 22.7197C26.921 22.8603 27 23.0511 27 23.25C27 23.4489 26.921 23.6397 26.7803 23.7803C26.6397 23.921 26.4489 24 26.25 24H20.25C20.0511 24 19.8603 23.921 19.7197 23.7803C19.579 23.6397 19.5 23.4489 19.5 23.25ZM20.25 27C20.0511 27 19.8603 26.921 19.7197 26.7803C19.579 26.6397 19.5 26.4489 19.5 26.25C19.5 26.0511 19.579 25.8603 19.7197 25.7197C19.8603 25.579 20.0511 25.5 20.25 25.5H23.25C23.4489 25.5 23.6397 25.579 23.7803 25.7197C23.921 25.8603 24 26.0511 24 26.25C24 26.4489 23.921 26.6397 23.7803 26.7803C23.6397 26.921 23.4489 27 23.25 27H20.25Z" fill="#3DA9FC"/>
</svg>
