<svg width="45" height="45" viewBox="0 0 45 45" fill="none" xmlns="http://www.w3.org/2000/svg">
<circle cx="22.5" cy="22.5" r="22.5" fill="#D8EEFE"/>
<path d="M30.4375 22.0625C30.4375 22.4333 30.3275 22.7959 30.1215 23.1042C29.9155 23.4125 29.6226 23.6529 29.28 23.7948C28.9374 23.9367 28.5604 23.9738 28.1967 23.9015C27.833 23.8291 27.4989 23.6505 27.2367 23.3883C26.9745 23.1261 26.7959 22.792 26.7235 22.4283C26.6512 22.0646 26.6883 21.6876 26.8302 21.345C26.9721 21.0024 27.2125 20.7095 27.5208 20.5035C27.8291 20.2975 28.1917 20.1875 28.5625 20.1875C29.0598 20.1875 29.5367 20.385 29.8883 20.7367C30.24 21.0883 30.4375 21.5652 30.4375 22.0625ZM25.2812 15.5H20.5938C20.2208 15.5 19.8631 15.6482 19.5994 15.9119C19.3357 16.1756 19.1875 16.5333 19.1875 16.9062C19.1875 17.2792 19.3357 17.6369 19.5994 17.9006C19.8631 18.1643 20.2208 18.3125 20.5938 18.3125H25.2812C25.6542 18.3125 26.0119 18.1643 26.2756 17.9006C26.5393 17.6369 26.6875 17.2792 26.6875 16.9062C26.6875 16.5333 26.5393 16.1756 26.2756 15.9119C26.0119 15.6482 25.6542 15.5 25.2812 15.5ZM37 21.125V24.875C37.0001 25.736 36.6618 26.5625 36.0581 27.1763C35.4543 27.7902 34.6335 28.1421 33.7727 28.1562L31.9844 33.1637C31.8217 33.6189 31.5222 34.0128 31.1269 34.2911C30.7317 34.5695 30.26 34.7189 29.7766 34.7188H28.2859C27.8025 34.7189 27.3308 34.5695 26.9356 34.2911C26.5403 34.0128 26.2408 33.6189 26.0781 33.1637L25.9609 32.8438H19.9105L19.7934 33.1637C19.6309 33.6184 19.3319 34.0118 18.9374 34.2901C18.5428 34.5685 18.0719 34.7182 17.5891 34.7188H16.0984C15.615 34.7189 15.1433 34.5695 14.7481 34.2911C14.3528 34.0128 14.0533 33.6189 13.8906 33.1637L12.4492 29.1266C11.2172 27.7085 10.3787 25.9919 10.0176 24.1484C9.88377 24.3672 9.81282 24.6186 9.8125 24.875C9.8125 25.248 9.66434 25.6056 9.40062 25.8694C9.1369 26.1331 8.77921 26.2812 8.40625 26.2812C8.03329 26.2812 7.6756 26.1331 7.41188 25.8694C7.14816 25.6056 7 25.248 7 24.875C7.00133 23.9911 7.27971 23.1299 7.79598 22.4124C8.31226 21.695 9.04044 21.1574 9.87812 20.8754C10.1736 18.239 11.4293 15.8037 13.4057 14.0342C15.3821 12.2646 17.9409 11.2846 20.5938 11.2812H32.7812C33.1542 11.2812 33.5119 11.4294 33.7756 11.6931C34.0393 11.9569 34.1875 12.3145 34.1875 12.6875C34.1875 13.0605 34.0393 13.4181 33.7756 13.6819C33.5119 13.9456 33.1542 14.0938 32.7812 14.0938H31.6094C32.7386 15.1218 33.6366 16.3781 34.2437 17.7793L34.293 17.8965C35.0509 18.0324 35.737 18.43 36.2317 19.02C36.7265 19.61 36.9984 20.355 37 21.125ZM34.1875 21.125C34.1875 21.0007 34.1381 20.8815 34.0502 20.7935C33.9623 20.7056 33.8431 20.6562 33.7188 20.6562H33.2898C32.9904 20.6562 32.6988 20.5606 32.4574 20.3834C32.2161 20.2061 32.0376 19.9564 31.948 19.6707C31.439 18.0529 30.427 16.6397 29.0594 15.6366C27.6918 14.6336 26.0398 14.0931 24.3438 14.0938H20.5938C19.0472 14.0936 17.5341 14.5435 16.2389 15.3886C14.9436 16.2336 13.9223 17.4373 13.2994 18.8528C12.6765 20.2684 12.4789 21.8345 12.7308 23.3604C12.9827 24.8863 13.6732 26.3059 14.718 27.4461C14.8448 27.5837 14.9424 27.7456 15.0051 27.9219L16.4289 31.9062H17.2586L17.5949 30.9688C17.6918 30.6948 17.8711 30.4576 18.1082 30.2898C18.3453 30.1219 18.6286 30.0316 18.9191 30.0312H26.9559C27.2464 30.0316 27.5297 30.1219 27.7668 30.2898C28.0039 30.4576 28.1832 30.6948 28.2801 30.9688L28.6164 31.9062H29.4461L31.457 26.2812C31.5539 26.0073 31.7332 25.7701 31.9703 25.6023C32.2074 25.4344 32.4907 25.3441 32.7812 25.3438H33.7188C33.8431 25.3438 33.9623 25.2944 34.0502 25.2065C34.1381 25.1185 34.1875 24.9993 34.1875 24.875V21.125Z" fill="#3DA9FC"/>
</svg>
