<svg width="40" height="40" viewBox="0 0 40 40" fill="none" xmlns="http://www.w3.org/2000/svg">
<circle cx="20" cy="20" r="20" fill="#D8EEFE"/>
<mask id="mask0_432_2318" style="mask-type:luminance" maskUnits="userSpaceOnUse" x="12" y="9" width="16" height="22">
<path d="M13 11C13 10.7348 13.1054 10.4804 13.2929 10.2929C13.4804 10.1054 13.7348 10 14 10H26C26.2652 10 26.5196 10.1054 26.7071 10.2929C26.8946 10.4804 27 10.7348 27 11V30L23.5 27.5L20 30L16.5 27.5L13 30V11Z" fill="white" stroke="white" stroke-width="2" stroke-linecap="round" stroke-linejoin="round"/>
<path d="M17 19H23M17 23H23M17 15H23" stroke="black" stroke-width="2" stroke-linecap="round" stroke-linejoin="round"/>
</mask>
<g mask="url(#mask0_432_2318)">
<path d="M8 8H32V32H8V8Z" fill="#3DA9FC"/>
</g>
</svg>
