<svg width="14" height="14" viewBox="0 0 14 14" fill="none" xmlns="http://www.w3.org/2000/svg">
<g clip-path="url(#clip0_258_2119)">
<circle cx="7" cy="7" r="6.5" fill="#D8EEFE" stroke="#3DA9FC"/>
<path d="M5.00001 7C5.00001 6.92825 5.01528 6.85865 5.04581 6.79121C5.07635 6.72377 5.11706 6.6678 5.16795 6.62332L7.9771 4.14798C8.08906 4.04933 8.23155 4 8.40458 4C8.57761 4 8.7201 4.04933 8.83206 4.14798C8.94402 4.24664 9 4.3722 9 4.52466C9 4.67713 8.94402 4.80269 8.83206 4.90135L6.45039 7L8.83206 9.09865C8.94402 9.19731 9 9.32287 9 9.47534C9 9.6278 8.94402 9.75336 8.83206 9.85202C8.7201 9.95067 8.57761 10 8.40458 10C8.23155 10 8.08906 9.95067 7.9771 9.85202L5.16795 7.37668C5.10688 7.32287 5.06352 7.26457 5.03787 7.20179C5.01222 7.13901 4.9996 7.07175 5.00001 7Z" fill="#3DA9FC"/>
</g>
<defs>
<clipPath id="clip0_258_2119">
<rect width="14" height="14" fill="white" transform="matrix(0 -1 1 0 0 14)"/>
</clipPath>
</defs>
</svg>
