<svg width="30" height="30" viewBox="0 0 30 30" fill="none" xmlns="http://www.w3.org/2000/svg">
<g clip-path="url(#clip0_245_2013)">
<mask id="mask0_245_2013" style="mask-type:luminance" maskUnits="userSpaceOnUse" x="1" y="1" width="28" height="29">
<path d="M11.3892 8.02139L19.671 3.23999L22.4382 8.03339L11.3892 8.02139Z" stroke="white" stroke-width="4" stroke-linecap="round" stroke-linejoin="round"/>
<path d="M3 9.24004C3 8.92178 3.12643 8.61655 3.35147 8.39151C3.57652 8.16647 3.88174 8.04004 4.2 8.04004H25.8C26.1183 8.04004 26.4235 8.16647 26.6485 8.39151C26.8736 8.61655 27 8.92178 27 9.24004V26.04C27 26.3583 26.8736 26.6635 26.6485 26.8886C26.4235 27.1136 26.1183 27.24 25.8 27.24H4.2C3.88174 27.24 3.57652 27.1136 3.35147 26.8886C3.12643 26.6635 3 26.3583 3 26.04V9.24004Z" fill="white" stroke="white" stroke-width="4" stroke-linejoin="round"/>
<path d="M21.75 20.64H27V14.64H21.75C20.01 14.64 18.6 15.9834 18.6 17.64C18.6 19.2966 20.01 20.64 21.75 20.64Z" fill="black" stroke="black" stroke-width="4" stroke-linejoin="round"/>
<path d="M27 10.74V25.14" stroke="white" stroke-width="4" stroke-linecap="round"/>
</mask>
<g mask="url(#mask0_245_2013)">
<path d="M0.599976 0.839966H29.4V29.64H0.599976V0.839966Z" fill="#90B4CE"/>
</g>
</g>
<defs>
<clipPath id="clip0_245_2013">
<rect width="29.2734" height="29.2734" fill="white" transform="translate(0.636719 0.378662)"/>
</clipPath>
</defs>
</svg>
