<svg width="40" height="40" viewBox="0 0 40 40" fill="none" xmlns="http://www.w3.org/2000/svg">
<circle cx="20" cy="20" r="20" fill="#D8EEFE"/>
<mask id="mask0_432_2320" style="mask-type:luminance" maskUnits="userSpaceOnUse" x="11" y="9" width="18" height="22">
<path d="M20 30C24.142 30 27.5 26.642 27.5 22.5C27.5 15.5 20 10 20 10C20 10 12.5 15.5 12.5 22.5C12.5 26.642 15.858 30 20 30Z" stroke="white" stroke-width="2" stroke-linecap="round" stroke-linejoin="round"/>
<path d="M12.5 22.4999C12.5 26.6419 15.858 29.9999 20 29.9999C24.142 29.9999 27.5 26.6419 27.5 22.4999C27.5 22.4999 23 23.9999 20 22.4999C17 20.9999 12.5 22.4999 12.5 22.4999Z" fill="white" stroke="white" stroke-width="2" stroke-linejoin="round"/>
</mask>
<g mask="url(#mask0_432_2320)">
<path d="M8 8H32V32H8V8Z" fill="#3DA9FC"/>
</g>
</svg>
